<svg width="71" height="73" viewBox="0 0 71 73" fill="none" xmlns="http://www.w3.org/2000/svg">
<path d="M44.1298 36.1665V29.8876C44.1298 28.5025 43.5388 27.9485 42.0706 27.9485H38.3402C36.872 27.9485 36.2811 28.5025 36.2811 29.8876V36.1665C36.2811 37.5516 36.872 38.1056 38.3402 38.1056H42.0706C43.5388 38.1056 44.1298 37.5516 44.1298 36.1665Z" fill="white"/>
<path d="M34.4344 38.1979V44.4769C34.4344 45.8619 33.8434 46.416 32.3753 46.416H28.6448C27.1767 46.416 26.5857 45.8619 26.5857 44.4769V38.1979C26.5857 36.8129 27.1767 36.2589 28.6448 36.2589H32.3753C33.8434 36.2589 34.4344 36.8129 34.4344 38.1979Z" fill="white"/>
<path d="M44.1298 44.4769V41.8914C44.1298 40.5064 43.5388 39.9523 42.0706 39.9523H38.3402C36.872 39.9523 36.2811 40.5064 36.2811 41.8914V44.4769C36.2811 45.8619 36.872 46.416 38.3402 46.416H42.0706C43.5388 46.416 44.1298 45.8619 44.1298 44.4769Z" fill="white"/>
<path d="M34.4344 32.473V29.8876C34.4344 28.5025 33.8434 27.9485 32.3753 27.9485H28.6448C27.1767 27.9485 26.5857 28.5025 26.5857 29.8876V32.473C26.5857 33.8581 27.1767 34.4121 28.6448 34.4121H32.3753C33.8434 34.4121 34.4344 33.8581 34.4344 32.473Z" fill="white"/>
<g opacity="0.2" filter="url(#filter0_f_4_67)">
<path d="M43.5319 35.3953V29.5975C43.5319 28.3185 42.9863 27.8069 41.6306 27.8069H38.186C36.8303 27.8069 36.2847 28.3185 36.2847 29.5975V35.3953C36.2847 36.6742 36.8303 37.1858 38.186 37.1858H41.6306C42.9863 37.1858 43.5319 36.6742 43.5319 35.3953Z" fill="white"/>
<path d="M34.5795 37.271V43.0689C34.5795 44.3478 34.0338 44.8594 32.6782 44.8594H29.2336C27.8779 44.8594 27.3322 44.3478 27.3322 43.0689V37.271C27.3322 35.9921 27.8779 35.4805 29.2336 35.4805H32.6782C34.0338 35.4805 34.5795 35.9921 34.5795 37.271Z" fill="white"/>
<path d="M43.5319 43.0689V40.6816C43.5319 39.4026 42.9863 38.8911 41.6306 38.8911H38.186C36.8303 38.8911 36.2847 39.4026 36.2847 40.6816V43.0689C36.2847 44.3478 36.8303 44.8594 38.186 44.8594H41.6306C42.9863 44.8594 43.5319 44.3478 43.5319 43.0689Z" fill="white"/>
<path d="M34.5795 31.9848V29.5975C34.5795 28.3185 34.0338 27.8069 32.6782 27.8069H29.2336C27.8779 27.8069 27.3322 28.3185 27.3322 29.5975V31.9848C27.3322 33.2637 27.8779 33.7753 29.2336 33.7753H32.6782C34.0338 33.7753 34.5795 33.2637 34.5795 31.9848Z" fill="white"/>
</g>
<defs>
<filter id="filter0_f_4_67" x="-2.0271" y="-1.12604" width="74.9183" height="74.9183" filterUnits="userSpaceOnUse" color-interpolation-filters="sRGB">
<feFlood flood-opacity="0" result="BackgroundImageFix"/>
<feBlend mode="normal" in="SourceGraphic" in2="BackgroundImageFix" result="shape"/>
<feGaussianBlur stdDeviation="13.6139" result="effect1_foregroundBlur_4_67"/>
</filter>
</defs>
</svg>
